<svg width="89" height="27" viewBox="0 0 89 27" fill="none" xmlns="http://www.w3.org/2000/svg">
<rect width="26.875" height="26.8634" rx="5.74602" transform="matrix(-1 0 0 1 26.875 0.0115051)" fill="url(#paint0_linear_1467_6109)"/>
<path d="M19.2153 18.1453C15.5391 20.9517 11.4888 20.9659 7.65907 18.1453" stroke="#FDFDFD" stroke-width="1.91534" stroke-linecap="round"/>
<path d="M10.3438 2.82385C10.3438 0.171839 11.8571 0.0834088 12.5776 0.0117476C10.9203 -0.05995 10.0744 0.195378 9.42232 0.832477C7.06843 3.12612 1.96287 8.13703 0.92524 9.28385C-0.112394 10.4307 -0.032506 12.0462 0.0395517 12.7152C-0.0180941 11.2243 1.16846 10.5649 1.76894 10.4216C3.28216 9.90307 6.53918 10.4216 8.03799 10.4216C9.53679 10.4216 10.1997 9.0836 10.3438 8.41462V2.82385Z" fill="#989DF3"/>
<path d="M42.0737 5.62722C46.0598 5.62722 48.8194 8.98149 48.8194 13.8231C48.8194 18.6646 46.0905 21.7657 42.503 21.7657C40.9085 21.7657 39.6514 21.1645 38.7008 19.9621V23.3796H32.875V6.07026H38.2409V8.0322C39.0075 6.5449 40.4486 5.62722 42.0737 5.62722ZM40.4792 16.4495C41.9204 16.4495 42.9322 15.2787 42.9322 13.6649C42.9322 12.051 41.9204 10.8801 40.4792 10.8801C39.0381 10.8801 37.9956 12.051 37.9956 13.6649C37.9956 15.2787 39.0381 16.4495 40.4792 16.4495Z" fill="#FDFDFD"/>
<path d="M55.5012 21.3217H49.6754V3.49539H55.5012V21.3217Z" fill="#FDFDFD"/>
<path d="M84.3217 13.4117L88.8904 21.3228H82.206L80.4889 17.2406L78.8025 21.3228H72.1181L76.8094 13.4117L72.5473 6.07026H79.2318L80.5196 10.5638L81.8994 6.07026H88.6144L84.3217 13.4117Z" fill="#FDFDFD"/>
<path d="M65.2775 21.7974C60.4022 21.7974 56.7841 18.3482 56.7841 13.7281C56.7841 9.10807 60.4022 5.65883 65.2775 5.65883C70.1528 5.65883 73.771 9.10807 73.771 13.7281C73.771 18.3482 70.1528 21.7974 65.2775 21.7974ZM65.2775 16.5761C66.78 16.5761 67.8838 15.3736 67.8838 13.7281C67.8838 12.0826 66.78 10.8801 65.2775 10.8801C63.7751 10.8801 62.6712 12.0826 62.6712 13.7281C62.6712 15.3736 63.7751 16.5761 65.2775 16.5761Z" fill="#FDFDFD"/>
<defs>
<linearGradient id="paint0_linear_1467_6109" x1="1.67969" y1="24.1771" x2="24.6481" y2="1.6019" gradientUnits="userSpaceOnUse">
<stop stop-color="#6069D6"/>
<stop offset="0.826998" stop-color="#7049EB"/>
<stop offset="0.838256" stop-color="#383838" stop-opacity="0"/>
</linearGradient>
</defs>
</svg>
